inDegrees=no
num_controls=7
num_derivatives=13
num_iterations=180
num_multipliers=7
num_parameters=0
num_slacks=7
num_states=26
objective=5.830484
objective_accelerations=0.479626
objective_balance=0.057994
objective_effort=0.424449
objective_height=4.750789
objective_ligament=0.117627
solver_duration=1999.936148
status=Solve_Succeeded
success=true
DataType=double
version=3
OpenSimVersion=4.4-2022-07-23-0e9fedc
endheader
time	/jointset/ground_pelvis/pelvis_tilt/value	/jointset/ground_pelvis/pelvis_tx/value	/jointset/ground_pelvis/pelvis_ty/value	/jointset/hip_l/hip_flexion_l/value	/jointset/hip_l/hip_adduction_l/value	/jointset/hip_l/hip_rotation_l/value	/jointset/back/lumbar_extension/value	/jointset/patellofemoral_l/patellar_flexion_l/value	/jointset/knee_l/knee_flexion_l/value	/jointset/knee_l/knee_adduction_l/value	/jointset/knee_l/knee_rotation_l/value	/jointset/ankle_l/ankle_angle_l/value	/jointset/subtalar_l/subtalar_angle_l/value	/jointset/ground_pelvis/pelvis_tilt/speed	/jointset/ground_pelvis/pelvis_tx/speed	/jointset/ground_pelvis/pelvis_ty/speed	/jointset/hip_l/hip_flexion_l/speed	/jointset/hip_l/hip_adduction_l/speed	/jointset/hip_l/hip_rotation_l/speed	/jointset/back/lumbar_extension/speed	/jointset/patellofemoral_l/patellar_flexion_l/speed	/jointset/knee_l/knee_flexion_l/speed	/jointset/knee_l/knee_adduction_l/speed	/jointset/knee_l/knee_rotation_l/speed	/jointset/ankle_l/ankle_angle_l/speed	/jointset/subtalar_l/subtalar_angle_l/speed	/forceset/tau_hip_flexion_l	/forceset/tau_hip_adduction_l	/forceset/tau_hip_rotation_l	/forceset/tau_knee_flexion_l	/forceset/tau_ankle_angle_l	/forceset/tau_subtalar_angle_l	/forceset/tau_lumbar_extension	lambda_cid13_p0	lambda_cid13_p1	lambda_cid13_p2	lambda_cid13_p3	lambda_cid13_p4	lambda_cid13_p5	lambda_cid14_p0	/jointset/ground_pelvis/pelvis_tilt/accel	/jointset/ground_pelvis/pelvis_tx/accel	/jointset/ground_pelvis/pelvis_ty/accel	/jointset/hip_l/hip_flexion_l/accel	/jointset/hip_l/hip_adduction_l/accel	/jointset/hip_l/hip_rotation_l/accel	/jointset/back/lumbar_extension/accel	/jointset/patellofemoral_l/patellar_flexion_l/accel	/jointset/knee_l/knee_flexion_l/accel	/jointset/knee_l/knee_adduction_l/accel	/jointset/knee_l/knee_rotation_l/accel	/jointset/ankle_l/ankle_angle_l/accel	/jointset/subtalar_l/subtalar_angle_l/accel	gamma_cid13_p0	gamma_cid13_p1	gamma_cid13_p2	gamma_cid13_p3	gamma_cid13_p4	gamma_cid13_p5	gamma_cid14_p0
0.5	-0.03255606536023329	-0.002490464474580289	0.8277565066072364	0.7867440963656498	-0.3308457902468177	-0.08942987111088875	-0.776107171136891	0.9004909623046402	0.9004909623044409	-0.1037616641854797	-0.1745291695388445	0.2113599305603087	0.03577273345329322	0.03647938794444402	-0.08138296022383056	-0.3465762884604893	1.215737683964212	-0.05008676558256443	0.5388433386577337	-0.8475387078477561	1.731004977763738	1.731004977763701	0.1357426704046696	7.018495876371727e-05	0.5988761494499765	0.166062443585677	-0.2255186495070482	0.03051865236247132	-0.005167118297358112	-0.249755557360164	0.02718791920997989	0.04444811384541814	0.2993286947492929	-34.74706267808997	-15.73418535404421	4.926119910874456	-3.867668708486319	-699.0669471406338	-76.89448053363644	-10.59216616095842	0.1348048003029011	0.4870050670702719	-0.1980058518972096	-1.286347630524764	0.2443942725309874	-0.4719922721878297	1.661947763375329	-1.38174172961099	-1.381741729611274	-0.2896826958186823	-0.003088034540451188	-0.3082203493649628	0.2999958608838352	-2.170976719505585e-07	-2.01094395348888e-07	1.348355731165179e-06	9.923151196163712e-08	-2.480523996458131e-07	-4.059436554768161e-07	-1.795599094657879e-07
0.51	-0.0321846294640722	-0.003279945788499402	0.8242816417015736	0.7988352252972394	-0.3313350974917791	-0.08406432267452525	-0.7844984036397171	0.9177291303458786	0.9177291303457111	-0.1024209019067678	-0.1745285019783192	0.2173320917718007	0.03744716406164052	0.03780451542457782	-0.07651409740339868	-0.3483142306234454	1.202306424781004	-0.04777999357050962	0.5341981745524684	-0.8306078712773065	1.716372630140445	1.716372630140535	0.1324088581439281	5.842933827678266e-05	0.5954676578544216	0.1687921623448851	-0.2304456098496172	0.03144287441759712	-0.005307357349649286	-0.2532591776028684	0.02416486020246534	0.04451196558366047	0.3047630347227677	-35.92989662024157	-15.51283347086124	4.842881758387394	-3.421757463819112	-703.0153077530746	-76.70201474696043	-9.896398141892973	0.1308562822236589	0.4867278324201593	-0.1493668666243937	-1.398791802008488	0.2228280924081213	-0.4711744445991458	1.723639819550237	-1.542346459910066	-1.542346459890753	-0.3553622623762187	-0.0007025610888323314	-0.3704314767510845	0.2546031944569023	-2.019781916896533e-07	-1.299980389329652e-07	1.30684840016118e-06	1.02630393802028e-07	-2.301351674701536e-07	-3.435752337680599e-07	-1.685572019063268e-07
0.52	-0.03180004438104786	-0.004020758285635116	0.8207918616806557	0.8107865862890272	-0.3318015351312566	-0.07874730507219409	-0.7927173301337072	0.934813301874636	0.9348133018745092	-0.1011135041048766	-0.1745280486210543	0.2232675144849145	0.03914792051978232	0.03910922531890742	-0.07164919686715057	-0.3495593115115966	1.187784096006235	-0.04551284448382002	0.5291371718510637	-0.8130775060800716	1.700205675268285	1.700205675268503	0.1290697750362047	2.734430635067584e-05	0.5915284497748516	0.1713276135447952	-0.235372570192221	0.03236709647268803	-0.005447596401839415	-0.2567627978455906	0.02114180119493519	0.0445758173218516	0.3101973746962198	-37.11417942703335	-15.29080606387414	4.759055531907524	-3.017896347506539	-707.0118969726351	-76.55387813620861	-9.201300483410551	0.1307212831417383	0.4862126102337544	-0.09943359693617755	-1.504561548837005	0.2364696874578965	-0.5551599914157925	1.781853488732209	-1.688663179384471	-1.688663179384474	-0.2907368652151393	-0.006953916828366024	-0.4143636461676812	0.2611423490242735	-1.860831601076481e-07	-5.499632206041255e-08	1.262539327455046e-06	1.062402982810242e-07	-2.124720981185085e-07	-2.790865143721512e-07	-1.568494360568468e-07
0.53	-0.03140254355780452	-0.004712982254874355	0.8172921016219726	0.8225874670970118	-0.3322454136005558	-0.07348280312817843	-0.8007580690505148	0.9517283609685991	0.9517283609686029	-0.09983940019561689	-0.1745278207572783	0.229161018216469	0.04087318583347462	0.04038733974456932	-0.06680004035970337	-0.3503089838050507	1.172220582120266	-0.04326884477812158	0.523702443636153	-0.7949842444417061	1.682566129547566	1.682566129547812	0.1257518427427519	1.89707194269643e-05	0.5870916863172987	0.1736942745817744	-0.2400654531969098	0.03313874425435223	-0.005543598794816799	-0.2604032548409679	0.0182059085362201	0.04457260709874696	0.3154100185133414	-38.27142983778971	-15.03736484779174	4.662198902716625	-2.569530200400138	-710.9329581022163	-76.39204754826446	-8.508806015800657	0.125799603009206	0.4836222921254311	-0.0502172213796124	-1.607991403212703	0.2172727988751777	-0.5468894118308679	1.835967426979596	-1.837572224956531	-1.837572224952162	-0.3521742742388226	0.002570084223240884	-0.4704204788672459	0.2196086564826926	-1.76825622305889e-07	-5.110470322521591e-08	1.219743797173435e-06	1.019234118922441e-07	-2.005066772523928e-07	-2.529810294213091e-07	-1.518193488425394e-07
